# xmcd
#
# Track frame offsets:
#	200
#	15265
#	28472
#	46332
#	64212
#	86697
#	104705
#	121115
#	141192
#	151447
#
# Disc length: 2380 seconds
#
# Revision: 0
# Processed by: cddbd v1.4PL0 Copyright (c) Steve Scherf et al.
#
# Submitted via: MusicManager v6.0.0.0
#
DISCID=85094a0a
DTITLE=Mike Cotter - Against The Grain
DYEAR=1995
DGENRE=country
TTITLE0=Love Me Tonite
TTITLE1=Let It All Go
TTITLE2=The Same Old Way
TTITLE3=You Dawn On Me
TTITLE4=Feels Like Rain
TTITLE5=Busload of Faith
TTITLE6=Lift Me Up
TTITLE7=Against the Grain
TTITLE8=If I Dont Have You
TTITLE9=Party Doll
EXTD=
EXTT0=
EXTT1=
EXTT2=
EXTT3=
EXTT4=
EXTT5=
EXTT6=
EXTT7=
EXTT8=
EXTT9=
PLAYORDER=
